<?xml version="1.0" encoding="utf-8"?>
<!-- Generator: Adobe Illustrator 26.3.1, SVG Export Plug-In . SVG Version: 6.00 Build 0)  -->
<svg version="1.1" id="flag-icons-gb" xmlns="http://www.w3.org/2000/svg" xmlns:xlink="http://www.w3.org/1999/xlink" x="0px"
	 y="0px" viewBox="0 0 26 26" style="enable-background:new 0 0 26 26;" xml:space="preserve">
<style type="text/css">
	.st0{fill:#012169;}
	.st1{fill:#FFFFFF;}
	.st2{fill:#C8102E;}
</style>
<path class="st0" d="M0,0h26v26H0V0z"/>
<path class="st1" d="M3,0L13,9.8L22.8,0H26v3.4l-9.8,9.7l9.8,9.6V26h-3.2L13,16.3L3.3,26H0v-3.2l9.7-9.6L0,3.5V0H3z"/>
<path class="st2" d="M17.2,15.2l8.8,8.6V26L15,15.2H17.2z M9.8,16.3l0.2,1.9L2.2,26H0L9.8,16.3z M26,0v0.2L15.9,10.3L16,8l8-8H26z
	 M0,0l9.7,9.5H7.3L0,2.3V0z"/>
<path class="st1" d="M9.8,0v26h6.5V0H9.8z M0,8.7v8.7h26V8.7H0z"/>
<path class="st2" d="M0,10.5v5.2h26v-5.2H0z M11.1,0v26H15V0H11.1z"/>
</svg>
